<?xml version="1.0" standalone="no"?>
<!DOCTYPE svg PUBLIC "-//W3C//DTD SVG 20010904//EN"
 "http://www.w3.org/TR/2001/REC-SVG-20010904/DTD/svg10.dtd">
<svg version="1.0" xmlns="http://www.w3.org/2000/svg"
 width="433.000000pt" height="433.000000pt" viewBox="0 0 433.000000 433.000000"
 preserveAspectRatio="xMidYMid meet">
<metadata>
Created by potrace 1.14, written by Peter Selinger 2001-2017
</metadata>
<g transform="translate(0.000000,433.000000) scale(0.100000,-0.100000)"
fill="#000000" stroke="none">
<path d="M1920 4215 c-82 -10 -124 -17 -235 -39 -11 -2 -47 -12 -80 -21 -493
-139 -905 -439 -1190 -865 -118 -178 -250 -484 -290 -677 -9 -43 -19 -87 -21
-98 -2 -11 -7 -40 -10 -65 -3 -25 -7 -56 -10 -70 -20 -92 -5 -512 22 -620 3
-14 8 -36 10 -50 14 -77 60 -228 104 -339 51 -129 66 -159 73 -151 5 7 67 232
73 267 2 15 12 62 21 103 20 87 23 299 8 455 -5 55 -10 211 -10 346 l0 246 30
27 c41 36 83 58 123 63 19 3 61 22 94 44 74 47 137 66 253 74 50 3 110 8 135
10 25 2 77 6 115 10 39 3 97 8 130 11 33 4 73 8 89 9 16 2 43 -2 60 -7 17 -6
121 -11 231 -13 131 -1 214 -6 240 -14 57 -19 64 -30 13 -20 -71 14 -125 11
-144 -8 -14 -15 -16 -30 -10 -107 4 -50 10 -118 14 -151 4 -33 7 -66 6 -72 -1
-7 -2 -28 -3 -45 l-2 -33 -15 28 c-14 25 -19 77 -28 296 -3 59 -7 76 -22 85
-30 17 -66 22 -107 15 -74 -13 -72 -5 -70 -329 1 -173 -2 -290 -8 -290 -5 0
-9 44 -10 98 -1 53 -2 135 -4 182 -1 47 -3 133 -5 192 -4 176 -30 195 -227
163 -41 -7 -78 -30 -92 -59 -15 -32 -22 -238 -11 -324 3 -29 3 -52 -2 -52 -4
0 -8 10 -9 23 -1 26 -3 39 -18 129 -6 37 -14 93 -17 125 -3 32 -10 70 -15 84
-12 30 -50 51 -82 45 -12 -3 -53 -8 -91 -11 -99 -8 -116 -14 -117 -39 -2 -41
-1 -102 7 -226 4 -69 6 -159 6 -200 -5 -297 -1 -511 13 -680 2 -30 7 -89 10
-130 7 -90 13 -167 21 -238 4 -32 1 -65 -6 -82 -28 -69 -39 -10 -55 314 -11
214 -25 449 -30 516 -2 30 -7 100 -10 155 -3 55 -8 123 -10 150 -3 28 -7 79
-9 115 -19 247 -22 264 -55 275 -31 10 -90 -24 -119 -68 -26 -38 -27 -47 -27
-161 0 -67 4 -193 8 -281 8 -158 11 -231 22 -555 3 -91 7 -174 9 -186 2 -11 7
-47 10 -79 9 -80 32 -232 51 -324 12 -63 53 -166 106 -266 46 -87 84 -183 94
-235 18 -95 7 -80 133 -167 l83 -58 167 1 c239 0 271 9 433 125 92 66 158 101
220 119 25 8 42 -2 22 -12 -5 -2 -23 -20 -41 -42 -23 -26 -32 -46 -30 -64 2
-22 -5 -32 -47 -60 -47 -31 -80 -48 -228 -117 -56 -26 -86 -62 -72 -86 24 -38
288 -45 427 -11 48 12 134 29 190 38 57 9 130 28 163 42 56 23 73 25 245 29
102 2 192 5 200 7 91 19 104 55 20 55 -8 0 -100 2 -205 5 -207 6 -263 -1 -368
-48 -101 -44 -322 -80 -356 -58 -32 22 28 81 215 214 69 49 133 95 141 103 18
18 27 19 53 3 15 -10 26 -10 53 0 52 19 64 15 97 -31 52 -73 98 -88 238 -77
33 3 47 -2 65 -18 27 -25 57 -29 57 -7 0 8 -11 40 -25 72 l-26 58 41 -44 c26
-29 45 -41 56 -37 16 6 43 -5 66 -27 33 -31 72 -57 88 -57 9 0 38 21 64 48 44
44 48 46 61 29 7 -10 11 -27 8 -37 -10 -39 6 -67 49 -88 57 -27 85 -49 75 -58
-4 -4 -63 -9 -130 -9 -100 -2 -145 -8 -247 -33 -139 -35 -155 -38 -255 -47
-89 -8 -105 -10 -312 -40 -232 -34 -352 -43 -582 -45 -68 -1 -121 -3 -118 -6
5 -5 129 -42 167 -49 188 -36 278 -46 435 -48 114 -1 290 9 304 17 3 2 32 7
63 10 152 18 386 94 573 187 207 103 318 177 480 322 389 348 636 842 682
1362 11 136 6 384 -11 470 -2 11 -7 43 -10 70 -4 28 -18 93 -31 146 -131 522
-445 960 -900 1258 -202 132 -543 267 -750 296 -22 3 -67 11 -100 17 -85 15
-402 17 -515 3z m706 -380 c-2 -7 1 -18 7 -24 8 -8 7 -11 -5 -11 -9 0 -18 -4
-20 -9 -1 -5 -11 -4 -20 3 -24 18 -13 51 18 52 17 1 24 -2 20 -11z m340 -42
c1 -14 -4 -23 -12 -23 -8 0 -14 -4 -14 -10 0 -5 -8 -2 -18 8 -13 12 -16 21 -8
33 14 25 51 19 52 -8z m-766 -10 c16 4 20 1 18 -11 -1 -9 3 -27 10 -39 10 -19
10 -22 -2 -17 -8 3 -24 -4 -35 -15 -19 -19 -20 -19 -26 -1 -3 10 -16 22 -27
26 -20 6 -20 8 -5 19 9 7 17 22 17 35 0 19 2 20 15 10 8 -7 24 -10 35 -7z
m-170 -382 c0 -11 6 -21 12 -23 9 -3 8 -9 -5 -22 -9 -10 -17 -22 -17 -28 0 -6
-9 -3 -21 8 -12 10 -24 18 -27 16 -3 -1 -6 11 -6 26 -1 22 3 28 15 25 9 -3 20
0 23 6 11 18 26 13 26 -8z m322 10 c13 7 16 4 15 -14 0 -12 2 -29 4 -37 2 -8
-1 -14 -8 -13 -7 2 -18 -7 -24 -19 l-12 -22 -8 22 c-5 12 -15 22 -24 22 -8 0
-15 5 -15 10 0 6 5 10 10 10 6 0 10 11 10 25 0 22 3 24 18 16 10 -6 24 -6 34
0z m897 -307 c6 -1 16 -2 22 -3 6 0 3 -8 -6 -18 -10 -9 -15 -26 -12 -40 4 -19
1 -23 -12 -17 -20 8 -32 8 -53 -1 -15 -6 -18 -2 -18 23 0 19 -6 32 -17 37 -15
5 -12 9 15 20 19 8 32 21 32 32 0 15 4 14 20 -7 10 -14 24 -26 29 -26z m-1189
-329 c54 -28 84 -58 104 -106 8 -20 21 -39 28 -41 19 -8 13 -358 -5 -358 -13
0 -15 13 -22 135 -6 118 -18 232 -26 251 -9 27 -97 99 -107 90 -9 -10 -9 -205
1 -281 4 -33 10 -87 12 -120 l4 -60 -14 75 c-12 71 -19 133 -30 277 -5 62 -16
123 -30 157 -7 16 -5 17 16 11 13 -4 44 -18 69 -30z m754 -204 c3 -5 15 -7 26
-4 21 5 28 -11 10 -22 -7 -4 -7 -12 0 -25 14 -26 13 -30 -5 -23 -9 3 -25 -3
-35 -12 -19 -17 -20 -17 -20 3 0 12 -8 23 -21 27 l-21 7 21 22 c12 12 18 26
14 29 -3 4 1 7 10 7 9 0 18 -4 21 -9z m-1820 -198 c15 -128 17 -149 21 -173 3
-14 7 -52 10 -85 3 -33 8 -76 10 -95 3 -19 7 -55 10 -80 3 -25 7 -63 10 -85 3
-22 7 -60 10 -85 3 -25 10 -85 16 -135 5 -49 12 -106 14 -125 2 -19 7 -59 10
-89 4 -33 3 -51 -3 -47 -9 6 -15 37 -27 141 -3 28 -10 84 -15 125 -5 41 -12
102 -15 135 -3 33 -7 71 -10 85 -2 14 -7 52 -10 85 -3 33 -8 74 -10 90 -5 39
-13 105 -20 180 -4 33 -8 71 -11 85 -2 14 -6 61 -9 105 -6 90 9 67 19 -32z
m311 -298 c10 -99 12 -415 3 -415 -4 0 -8 30 -9 68 0 37 -2 75 -4 84 -2 9 -6
74 -10 145 -3 70 -8 144 -10 163 -2 19 -1 39 2 44 10 16 21 -19 28 -89z m525
42 c14 -7 25 -19 25 -26 0 -20 -29 -35 -51 -26 -39 17 -55 14 -86 -14 -26 -23
-31 -35 -30 -66 1 -21 8 -48 16 -61 20 -30 70 -40 100 -21 21 14 26 14 45 1
29 -21 27 -31 -11 -50 -64 -33 -146 -12 -189 48 -29 40 -30 112 -2 160 33 58
124 85 183 55z m165 -47 c-1 -28 2 -50 7 -51 4 -1 17 -1 28 -1 71 0 91 3 89
15 -1 6 -1 30 0 53 1 39 2 40 30 36 l30 -4 -2 -137 -2 -136 -27 0 c-30 -1 -31
2 -30 77 1 41 -4 44 -73 43 l-50 0 0 -60 c0 -57 -1 -59 -27 -60 -16 -1 -29 1
-29 4 -1 3 -2 65 -3 138 -1 126 0 132 19 136 35 5 42 -3 40 -53z m453 26 c4
-28 6 -27 -83 -30 -35 -1 -40 -4 -40 -26 0 -24 3 -25 57 -25 44 0 58 -4 61
-16 8 -29 -8 -40 -64 -42 -51 -2 -54 -4 -57 -29 l-3 -28 71 0 71 0 -4 -27 -4
-28 -94 0 -94 0 -1 137 -2 137 27 3 c14 2 55 2 91 2 62 -2 65 -3 68 -28z m143
24 c1 -3 2 -52 3 -110 l1 -105 58 -3 c57 -3 58 -4 55 -30 -3 -27 -3 -27 -88
-27 l-85 0 0 125 c-1 69 1 132 2 140 4 13 51 22 54 10z m340 -7 c17 -17 -12
-54 -36 -46 -26 8 -56 6 -67 -5 -16 -16 3 -41 40 -53 84 -26 106 -86 53 -140
-25 -24 -38 -29 -79 -29 -33 0 -57 6 -72 18 l-22 17 21 19 c13 12 26 16 38 11
34 -15 60 -15 73 0 19 22 6 42 -37 55 -87 28 -108 88 -51 142 29 27 38 30 81
25 26 -2 53 -9 58 -14z m274 3 c24 -9 5 -46 -24 -47 -97 -3 -96 -3 -96 -29 0
-22 5 -25 40 -26 81 -3 82 -3 80 -24 -2 -28 -6 -30 -63 -31 -29 -1 -53 -6 -53
-10 -6 -43 -6 -44 64 -47 68 -3 68 -3 65 -30 l-3 -27 -95 0 -95 0 0 137 -1
137 31 3 c41 4 134 0 150 -6z m658 -5 c7 -7 6 -16 -7 -30 -13 -15 -24 -17 -45
-11 -31 9 -61 -4 -61 -26 0 -8 24 -25 54 -38 82 -36 99 -85 47 -137 -24 -24
-38 -29 -76 -29 -26 0 -57 7 -71 16 l-25 17 22 24 c14 14 25 19 29 12 11 -17
66 -21 79 -6 19 23 2 45 -46 61 -25 9 -52 24 -59 33 -29 38 -8 103 40 124 26
11 104 5 119 -10z m-378 -98 c84 -190 79 -170 42 -169 -25 1 -35 7 -47 31 -13
26 -21 30 -60 31 -46 1 -80 -17 -80 -43 0 -7 -3 -13 -7 -14 -5 0 -15 -2 -24
-4 -33 -6 -37 9 -15 57 11 26 37 85 56 132 31 77 38 86 61 86 24 0 31 -10 74
-107z m127 56 c-17 -52 -35 -70 -53 -52 -6 6 -5 26 3 56 11 41 15 47 39 47
l27 0 -16 -51z m-2617 -280 c3 -24 7 -53 9 -65 2 -11 7 -54 11 -95 3 -41 8
-81 10 -89 2 -8 7 -51 10 -94 4 -43 8 -86 10 -96 2 -9 0 -23 -5 -30 -10 -16
-16 3 -25 75 -4 28 -8 61 -10 75 -2 14 -7 52 -10 85 -4 33 -8 71 -10 85 -13
92 -16 142 -10 170 9 40 13 35 20 -21z m833 -169 c2 -27 1 -28 -50 -28 -79 0
-78 0 -78 -31 0 -28 2 -29 43 -29 70 0 73 -1 75 -27 2 -27 -1 -28 -75 -26
l-43 1 0 -54 c0 -55 -8 -67 -41 -59 -13 4 -16 25 -16 136 -1 73 1 134 2 138 2
3 44 6 92 6 l89 1 2 -28z m129 -59 c2 -106 8 -130 35 -140 60 -22 79 10 80
134 l1 94 28 -1 c27 -1 28 -3 31 -62 6 -114 -5 -166 -39 -197 -27 -23 -39 -27
-82 -25 -37 1 -57 8 -75 25 -30 29 -37 59 -39 175 l-2 87 30 -3 30 -3 2 -84z
m399 -10 l59 -96 3 97 3 97 29 -1 30 -1 0 -142 0 -141 -35 2 c-20 2 -39 5 -44
8 -4 3 -32 46 -62 95 -30 50 -56 91 -60 91 -3 0 -5 -42 -4 -94 1 -81 -2 -95
-16 -99 -39 -10 -44 7 -44 147 l0 135 41 -1 c41 0 41 -1 100 -97z m384 81 c14
-6 36 -22 50 -37 21 -22 25 -37 25 -86 0 -54 -3 -62 -35 -93 -38 -38 -63 -46
-156 -49 l-61 -2 0 142 0 143 76 -5 c42 -2 87 -8 101 -13z m-331 -439 c19 -48
45 -79 80 -96 35 -16 50 -54 100 -237 24 -85 47 -165 52 -177 5 -13 5 -23 0
-23 -5 0 -16 17 -24 39 -31 75 -115 121 -229 125 -53 1 -53 1 -56 -31 -3 -30
-5 -31 -38 -26 -28 5 -37 1 -55 -21 -19 -24 -59 -36 -59 -18 0 18 -48 30 -81
22 -56 -13 -103 -32 -121 -47 -11 -10 -48 -17 -105 -20 l-88 -5 50 47 c122
116 216 172 330 198 63 14 114 14 278 2 l98 -8 -5 27 c-12 64 -43 116 -71 116
-23 0 -74 59 -84 97 -24 85 -2 113 28 36z m-1091 -513 l123 -33 39 22 c43 24
60 23 149 -10 99 -36 80 -52 -99 -83 -14 -2 -55 -10 -91 -17 -63 -11 -68 -11
-90 9 -27 26 -32 26 -93 8 -25 -8 -48 -14 -49 -14 -1 0 -36 -10 -77 -22 -87
-26 -165 -29 -187 -7 -14 13 -12 19 12 51 21 28 26 43 22 71 -4 29 -2 34 9 24
10 -8 19 -7 36 5 12 9 38 16 58 16 19 0 42 5 50 10 19 13 38 10 188 -30z"/>
<path d="M3396 2005 c-22 -52 -21 -56 18 -53 l34 2 -16 40 c-8 23 -17 43 -18
45 -2 2 -10 -14 -18 -34z"/>
<path d="M2630 1585 c-7 -8 -10 -44 -8 -87 l3 -73 44 1 c60 1 96 40 86 93 -8
46 -20 58 -72 69 -32 7 -45 7 -53 -3z"/>
</g>
</svg>
